HIERARCHY
ROOT Hips
{
	OFFSET -366.576721 -553.763367 89.060974
	CHANNELS 6 Xposition Yposition Zposition Zrotation Yrotation Xrotation
	JOINT Spine
	{
		OFFSET 0.000000 2.080078 8.814247
		CHANNELS 6 Xposition Yposition Zposition Zrotation Yrotation Xrotation
		JOINT Spine1
		{
			OFFSET 0.000000 0.000000 8.844139
			CHANNELS 6 Xposition Yposition Zposition Zrotation Yrotation Xrotation
			JOINT Spine2
			{
				OFFSET 0.000000 0.000000 11.682266
				CHANNELS 6 Xposition Yposition Zposition Zrotation Yrotation Xrotation
				JOINT Spine3
				{
					OFFSET 0.000000 0.000000 11.746704
					CHANNELS 6 Xposition Yposition Zposition Zrotation Yrotation Xrotation
					JOINT Neck
					{
						OFFSET 0.000000 0.000000 17.658264
						CHANNELS 6 Xposition Yposition Zposition Zrotation Yrotation Xrotation
						JOINT Neck1
						{
							OFFSET 0.000000 0.000000 5.101517
							CHANNELS 6 Xposition Yposition Zposition Zrotation Yrotation Xrotation
							JOINT Head
							{
								OFFSET 0.000000 0.000000 5.101517
								CHANNELS 6 Xposition Yposition Zposition Zrotation Yrotation Xrotation
								JOINT HeadEnd
								{
									OFFSET 0.000000 0.000000 11.655090
									CHANNELS 6 Xposition Yposition Zposition Zrotation Yrotation Xrotation
									End Site
									{
										OFFSET 0.000000 0.000000 0.100006
									}
								}
							}
						}
					}
					JOINT RightShoulder
					{
						OFFSET -2.625397 0.000000 11.175217
						CHANNELS 6 Xposition Yposition Zposition Zrotation Yrotation Xrotation
						JOINT RightArm
						{
							OFFSET 0.000000 0.000000 10.434708
							CHANNELS 6 Xposition Yposition Zposition Zrotation Yrotation Xrotation
							JOINT RightForeArm
							{
								OFFSET 0.000000 0.000000 29.628418
								CHANNELS 6 Xposition Yposition Zposition Zrotation Yrotation Xrotation
								JOINT RightHand
								{
									OFFSET 0.000000 0.000000 22.857605
									CHANNELS 6 Xposition Yposition Zposition Zrotation Yrotation Xrotation
									JOINT RightHandThumb1
									{
										OFFSET -2.867310 -2.944275 3.959564
										CHANNELS 6 Xposition Yposition Zposition Zrotation Yrotation Xrotation
										JOINT RightHandThumb2
										{
											OFFSET 0.000000 0.000000 3.350403
											CHANNELS 6 Xposition Yposition Zposition Zrotation Yrotation Xrotation
											JOINT RightHandThumb3
											{
												OFFSET 0.000000 0.000000 3.756516
												CHANNELS 6 Xposition Yposition Zposition Zrotation Yrotation Xrotation
												JOINT RightHandThumb4
												{
													OFFSET 0.000000 0.000000 3.147339
													CHANNELS 6 Xposition Yposition Zposition Zrotation Yrotation Xrotation
													End Site
													{
														OFFSET 0.000000 0.000000 0.100006
													}
												}
											}
										}
									}
									JOINT RightHandIndex1
									{
										OFFSET -0.086761 -2.345276 10.030899
										CHANNELS 6 Xposition Yposition Zposition Zrotation Yrotation Xrotation
										JOINT RightHandIndex2
										{
											OFFSET 0.000000 0.000000 4.061096
											CHANNELS 6 Xposition Yposition Zposition Zrotation Yrotation Xrotation
											JOINT RightHandIndex3
											{
												OFFSET 0.000000 0.000000 3.248871
												CHANNELS 6 Xposition Yposition Zposition Zrotation Yrotation Xrotation
												JOINT RightHandIndex4
												{
													OFFSET 0.000000 0.000000 2.639709
													CHANNELS 6 Xposition Yposition Zposition Zrotation Yrotation Xrotation
													End Site
													{
														OFFSET 0.000000 0.000000 0.100006
													}
												}
											}
										}
									}
									JOINT RightHandMiddle1
									{
										OFFSET 0.104095 -0.006775 9.502945
										CHANNELS 6 Xposition Yposition Zposition Zrotation Yrotation Xrotation
										JOINT RightHandMiddle2
										{
											OFFSET 0.000000 0.000000 4.568726
											CHANNELS 6 Xposition Yposition Zposition Zrotation Yrotation Xrotation
											JOINT RightHandMiddle3
											{
												OFFSET 0.000000 0.000000 3.654984
												CHANNELS 6 Xposition Yposition Zposition Zrotation Yrotation Xrotation
												JOINT RightHandMiddle4
												{
													OFFSET 0.000000 0.000000 2.741241
													CHANNELS 6 Xposition Yposition Zposition Zrotation Yrotation Xrotation
													End Site
													{
														OFFSET 0.000000 0.000000 0.100006
													}
												}
											}
										}
									}
									JOINT RightHandRing1
									{
										OFFSET 0.086761 2.267456 8.921707
										CHANNELS 6 Xposition Yposition Zposition Zrotation Yrotation Xrotation
										JOINT RightHandRing2
										{
											OFFSET 0.000000 0.000000 4.061096
											CHANNELS 6 Xposition Yposition Zposition Zrotation Yrotation Xrotation
											JOINT RightHandRing3
											{
												OFFSET 0.000000 0.000000 3.654984
												CHANNELS 6 Xposition Yposition Zposition Zrotation Yrotation Xrotation
												JOINT RightHandRing4
												{
													OFFSET 0.000000 0.000000 2.741241
													CHANNELS 6 Xposition Yposition Zposition Zrotation Yrotation Xrotation
													End Site
													{
														OFFSET 0.000000 0.000000 0.100006
													}
												}
											}
										}
									}
									JOINT RightHandPinky1
									{
										OFFSET -0.173492 4.467224 7.976990
										CHANNELS 6 Xposition Yposition Zposition Zrotation Yrotation Xrotation
										JOINT RightHandPinky2
										{
											OFFSET 0.000000 0.000000 3.350403
											CHANNELS 6 Xposition Yposition Zposition Zrotation Yrotation Xrotation
											JOINT RightHandPinky3
											{
												OFFSET 0.000000 0.000000 2.842758
												CHANNELS 6 Xposition Yposition Zposition Zrotation Yrotation Xrotation
												JOINT RightHandPinky4
												{
													OFFSET 0.000000 0.000000 2.639709
													CHANNELS 6 Xposition Yposition Zposition Zrotation Yrotation Xrotation
													End Site
													{
														OFFSET 0.000000 0.000000 0.100006
													}
												}
											}
										}
									}
									JOINT RightForeArmEnd
									{
										OFFSET 0.000000 0.000000 0.000000
										CHANNELS 6 Xposition Yposition Zposition Zrotation Yrotation Xrotation
										End Site
										{
											OFFSET 0.000000 0.000000 0.100006
										}
									}
								}
								JOINT RightArmEnd
								{
									OFFSET 0.000000 0.000000 0.000000
									CHANNELS 6 Xposition Yposition Zposition Zrotation Yrotation Xrotation
									End Site
									{
										OFFSET 0.000000 0.000000 0.100006
									}
								}
							}
						}
					}
					JOINT LeftShoulder
					{
						OFFSET 2.625397 0.000000 11.175217
						CHANNELS 6 Xposition Yposition Zposition Zrotation Yrotation Xrotation
						JOINT LeftArm
						{
							OFFSET 0.000000 0.000000 10.813629
							CHANNELS 6 Xposition Yposition Zposition Zrotation Yrotation Xrotation
							JOINT LeftForeArm
							{
								OFFSET 0.000000 0.000000 28.724777
								CHANNELS 6 Xposition Yposition Zposition Zrotation Yrotation Xrotation
								JOINT LeftHand
								{
									OFFSET 0.644379 0.328857 25.716171
									CHANNELS 6 Xposition Yposition Zposition Zrotation Yrotation Xrotation
									JOINT LeftHandThumb1
									{
										OFFSET 2.867310 -2.944275 3.959564
										CHANNELS 6 Xposition Yposition Zposition Zrotation Yrotation Xrotation
										JOINT LeftHandThumb2
										{
											OFFSET 0.000000 0.000000 3.350403
											CHANNELS 6 Xposition Yposition Zposition Zrotation Yrotation Xrotation
											JOINT LeftHandThumb3
											{
												OFFSET 0.000000 0.000000 3.756516
												CHANNELS 6 Xposition Yposition Zposition Zrotation Yrotation Xrotation
												JOINT LeftHandThumb4
												{
													OFFSET 0.000000 0.000000 3.100006
													CHANNELS 6 Xposition Yposition Zposition Zrotation Yrotation Xrotation
													End Site
													{
														OFFSET 0.000000 0.000000 0.100006
													}
												}
											}
										}
									}
									JOINT LeftHandIndex1
									{
										OFFSET 0.086761 -2.345276 10.030899
										CHANNELS 6 Xposition Yposition Zposition Zrotation Yrotation Xrotation
										JOINT LeftHandIndex2
										{
											OFFSET 0.000000 0.000000 4.061096
											CHANNELS 6 Xposition Yposition Zposition Zrotation Yrotation Xrotation
											JOINT LeftHandIndex3
											{
												OFFSET 0.000000 0.000000 3.248871
												CHANNELS 6 Xposition Yposition Zposition Zrotation Yrotation Xrotation
												JOINT LeftHandIndex4
												{
													OFFSET 0.000000 0.000000 2.639709
													CHANNELS 6 Xposition Yposition Zposition Zrotation Yrotation Xrotation
													End Site
													{
														OFFSET 0.000000 0.000000 0.100006
													}
												}
											}
										}
									}
									JOINT LeftHandMiddle1
									{
										OFFSET -0.104095 -0.006775 9.502945
										CHANNELS 6 Xposition Yposition Zposition Zrotation Yrotation Xrotation
										JOINT LeftHandMiddle2
										{
											OFFSET 0.000000 0.000000 4.568726
											CHANNELS 6 Xposition Yposition Zposition Zrotation Yrotation Xrotation
											JOINT LeftHandMiddle3
											{
												OFFSET 0.000000 0.000000 3.654984
												CHANNELS 6 Xposition Yposition Zposition Zrotation Yrotation Xrotation
												JOINT LeftHandMiddle4
												{
													OFFSET 0.000000 0.000000 2.741241
													CHANNELS 6 Xposition Yposition Zposition Zrotation Yrotation Xrotation
													End Site
													{
														OFFSET 0.000000 0.000000 0.100006
													}
												}
											}
										}
									}
									JOINT LeftHandRing1
									{
										OFFSET -0.086761 2.267456 8.921707
										CHANNELS 6 Xposition Yposition Zposition Zrotation Yrotation Xrotation
										JOINT LeftHandRing2
										{
											OFFSET 0.000000 0.000000 4.061096
											CHANNELS 6 Xposition Yposition Zposition Zrotation Yrotation Xrotation
											JOINT LeftHandRing3
											{
												OFFSET 0.000000 0.000000 3.654984
												CHANNELS 6 Xposition Yposition Zposition Zrotation Yrotation Xrotation
												JOINT LeftHandRing4
												{
													OFFSET 0.000000 0.000000 2.741241
													CHANNELS 6 Xposition Yposition Zposition Zrotation Yrotation Xrotation
													End Site
													{
														OFFSET 0.000000 0.000000 0.100006
													}
												}
											}
										}
									}
									JOINT LeftHandPinky1
									{
										OFFSET 0.173492 4.467224 7.976990
										CHANNELS 6 Xposition Yposition Zposition Zrotation Yrotation Xrotation
										JOINT LeftHandPinky2
										{
											OFFSET 0.000000 0.000000 3.350403
											CHANNELS 6 Xposition Yposition Zposition Zrotation Yrotation Xrotation
											JOINT LeftHandPinky3
											{
												OFFSET 0.000000 0.000000 2.842758
												CHANNELS 6 Xposition Yposition Zposition Zrotation Yrotation Xrotation
												JOINT LeftHandPinky4
												{
													OFFSET 0.000000 0.000000 2.639709
													CHANNELS 6 Xposition Yposition Zposition Zrotation Yrotation Xrotation
													End Site
													{
														OFFSET 0.000000 0.000000 0.100006
													}
												}
											}
										}
									}
									JOINT LeftForeArmEnd
									{
										OFFSET 0.000000 0.000000 0.000000
										CHANNELS 6 Xposition Yposition Zposition Zrotation Yrotation Xrotation
										End Site
										{
											OFFSET 0.000000 0.000000 0.100006
										}
									}
								}
								JOINT LeftArmEnd
								{
									OFFSET 0.000000 0.000000 0.000000
									CHANNELS 6 Xposition Yposition Zposition Zrotation Yrotation Xrotation
									End Site
									{
										OFFSET 0.000000 0.000000 0.100006
									}
								}
							}
						}
					}
				}
			}
		}
	}
	JOINT RightUpLeg
	{
		OFFSET -11.289948 0.000000 0.000000
		CHANNELS 6 Xposition Yposition Zposition Zrotation Yrotation Xrotation
		JOINT RightLeg
		{
			OFFSET 0.000000 0.000000 -38.200321
			CHANNELS 6 Xposition Yposition Zposition Zrotation Yrotation Xrotation
			JOINT RightFoot
			{
				OFFSET 0.000000 0.000000 -39.900856
				CHANNELS 6 Xposition Yposition Zposition Zrotation Yrotation Xrotation
				JOINT RightToeBase
				{
					OFFSET 0.000000 -15.261658 0.000001
					CHANNELS 6 Xposition Yposition Zposition Zrotation Yrotation Xrotation
					JOINT RightToeBaseEnd
					{
						OFFSET 0.000000 -7.370728 0.000001
						CHANNELS 6 Xposition Yposition Zposition Zrotation Yrotation Xrotation
						End Site
						{
							OFFSET 0.000000 0.000000 0.100000
						}
					}
				}
				JOINT RightLegEnd
				{
					OFFSET 0.000000 0.000000 0.000000
					CHANNELS 6 Xposition Yposition Zposition Zrotation Yrotation Xrotation
					End Site
					{
						OFFSET 0.000000 0.000000 0.100000
					}
				}
			}
			JOINT RightUpLegEnd
			{
				OFFSET 0.000000 0.000000 0.000000
				CHANNELS 6 Xposition Yposition Zposition Zrotation Yrotation Xrotation
				End Site
				{
					OFFSET 0.000000 0.000000 0.099998
				}
			}
		}
	}
	JOINT LeftUpLeg
	{
		OFFSET 11.315674 0.000000 0.000000
		CHANNELS 6 Xposition Yposition Zposition Zrotation Yrotation Xrotation
		JOINT LeftLeg
		{
			OFFSET 0.000000 0.000000 -38.200321
			CHANNELS 6 Xposition Yposition Zposition Zrotation Yrotation Xrotation
			JOINT LeftFoot
			{
				OFFSET 0.000000 0.000000 -39.900856
				CHANNELS 6 Xposition Yposition Zposition Zrotation Yrotation Xrotation
				JOINT LeftToeBase
				{
					OFFSET 0.000000 -15.261658 0.000001
					CHANNELS 6 Xposition Yposition Zposition Zrotation Yrotation Xrotation
					JOINT LeftToeBaseEnd
					{
						OFFSET 0.000000 -7.539978 0.000001
						CHANNELS 6 Xposition Yposition Zposition Zrotation Yrotation Xrotation
						End Site
						{
							OFFSET 0.000000 0.000000 0.100000
						}
					}
				}
				JOINT LeftLegEnd
				{
					OFFSET 0.000000 0.000000 0.000000
					CHANNELS 6 Xposition Yposition Zposition Zrotation Yrotation Xrotation
					End Site
					{
						OFFSET 0.000000 0.000000 0.100000
					}
				}
			}
			JOINT LeftUpLegEnd
			{
				OFFSET 0.000000 0.000000 0.000000
				CHANNELS 6 Xposition Yposition Zposition Zrotation Yrotation Xrotation
				End Site
				{
					OFFSET 0.000000 0.000000 0.099998
				}
			}
		}
	}
}
MOTION
Frames: 2
Frame Time: 0.016667
0.792847 -18.468079 85.815567 4.183362 7.847843 -19.329032 -0.000074 2.080043 8.814232 -1.289255 -4.780670 9.246981 -0.000034 -0.000083 8.844128 -0.266881 0.425746 3.588058 -0.000006 -0.000019 11.682285 -4.824008 -3.280932 8.200962 -0.000038 0.000007 11.746704 -1.281816 -4.249674 6.240979 -0.000008 -0.000044 17.658295 -0.128831 -3.678314 10.053820 -0.000036 -0.000005 5.101506 2.074064 0.449644 -1.398680 -0.000029 -0.000073 5.101542 -1.115526 1.237864 -24.361311 -0.000030 -0.000062 11.655093 -0.000000 0.000000 -0.000000 -2.625405 0.000020 11.175187 5.554243 -90.440236 0.191428 -0.000031 0.000011 10.434708 -15.777763 -30.884562 12.336960 0.000008 0.000023 29.628408 26.382821 -0.698467 37.201674 0.000019 0.000084 22.857552 -11.030273 -14.907808 -10.327973 -2.867298 -2.944305 3.959549 31.570357 -17.795599 50.709011 -0.000015 -0.000061 3.350422 -13.848226 8.875901 -24.834935 -0.000042 -0.000061 3.756554 -9.200074 6.815918 -16.986839 -0.000002 -0.000005 3.147339 0.000001 0.000001 -0.000001 -0.086761 -2.345247 10.030918 -12.143874 -17.269167 4.950822 -0.000045 0.000017 4.061106 0.302577 -12.537396 1.791124 -0.000011 -0.000020 3.248869 -0.196936 -12.537419 1.791024 0.000004 -0.000008 2.639694 0.000001 0.000000 0.000000 0.104099 -0.006785 9.502959 -6.680412 -16.604466 1.726584 -0.000001 -0.000022 4.568720 0.434280 -11.843598 0.629781 -0.000041 0.000025 3.654989 -0.066105 -11.843601 0.630119 -0.000023 -0.000016 2.741253 0.000003 -0.000001 0.000000 0.086763 2.267463 8.921714 1.438039 -18.029116 -1.031229 0.000009 -0.000017 4.061120 -0.910328 -12.814427 -0.797159 -0.000035 0.000021 3.654996 0.089951 -12.814564 -0.797154 -0.000011 -0.000008 2.741222 0.000001 0.000000 0.000000 -0.173500 4.467170 7.977009 10.279991 -17.809715 -5.223788 0.000008 -0.000011 3.350401 -1.710515 -12.920238 -2.555742 0.000002 0.000028 2.842745 0.289793 -12.920131 -2.555813 -0.000007 0.000015 2.639689 -0.000002 0.000000 0.000001 -0.000015 -0.000058 0.000051 -0.000002 0.000000 0.000001 -0.000018 -0.000007 -0.000003 0.000001 -0.000000 -0.000000 2.625397 0.000013 11.175241 -6.370281 83.965742 -0.297676 0.000015 0.000011 10.813583 -31.565876 44.215431 -36.717885 -0.000015 0.000000 28.724735 -27.361914 2.944233 79.161961 0.644318 0.328827 25.716171 26.019314 30.215377 -27.078042 2.867271 -2.944275 3.959541 -31.742604 16.402167 52.841878 0.000023 0.000023 3.350403 10.770519 -7.598590 -19.674218 -0.000029 -0.000031 3.756531 7.196799 -5.677128 -13.491808 0.000014 -0.000027 3.099990 0.000003 -0.000001 0.000001 0.086752 -2.345268 10.030899 -6.978469 9.858024 11.738116 -0.000019 -0.000025 4.061110 0.460645 5.652539 -0.797074 0.000004 0.000012 3.248871 -0.039349 5.653119 -0.797030 -0.000028 -0.000002 2.639702 0.000001 -0.000001 -0.000002 -0.104155 -0.006768 9.502926 -2.090064 8.427468 6.843728 0.000014 0.000008 4.568741 0.485204 5.675658 -0.298430 0.000012 -0.000015 3.655005 -0.014797 5.675653 -0.298417 0.000007 0.000007 2.741253 -0.000002 0.000001 0.000001 -0.086796 2.267463 8.921701 6.362708 10.016379 0.976403 -0.000028 -0.000019 4.061090 -0.972619 7.139676 0.438959 -0.000044 -0.000002 3.654989 0.027388 7.139673 0.438964 -0.000008 0.000008 2.741251 -0.000000 0.000001 -0.000003 0.173470 4.467157 7.977016 15.260736 12.588320 -4.029020 -0.000032 -0.000005 3.350419 -1.892577 7.925421 1.550623 -0.000008 0.000026 2.842772 0.107424 7.925456 1.550645 0.000010 0.000002 2.639702 0.000001 -0.000000 -0.000001 -0.000064 -0.000077 -0.000014 0.000001 -0.000002 0.000000 0.000007 -0.000036 0.000014 -0.000002 0.000002 0.000001 -11.289914 0.000013 0.000009 -16.543280 -1.253336 16.518970 -0.000006 -0.000001 -38.200329 -0.805608 0.253741 17.504662 0.000015 -0.000019 -39.900856 -18.873061 0.980219 11.494437 -0.000011 -15.261667 0.000024 1.389255 0.962180 -14.862492 0.000042 -7.370712 0.000003 -0.000002 0.000000 0.000000 0.000000 0.000002 0.000001 -0.000000 0.000001 0.000000 -0.000011 0.000003 -0.000000 -0.000000 0.000000 0.000001 11.315681 -0.000033 -0.000023 -14.501658 -19.671850 14.766640 0.000009 0.000024 -38.200321 1.653264 -0.759659 24.657113 -0.000015 -0.000026 -39.900867 0.246489 10.175497 8.140093 -0.000044 -15.261699 0.000019 -1.545086 -1.484661 -18.848496 -0.000001 -7.539978 -0.000000 -0.000000 0.000000 -0.000000 0.000004 -0.000003 -0.000002 0.000000 0.000000 0.000001 0.000003 -0.000001 -0.000009 0.000001 -0.000000 0.000001 
0.774475 -18.441223 85.813858 4.105401 7.882755 -19.301705 -0.000016 2.080033 8.814241 -1.274205 -4.778148 9.250397 -0.000059 -0.000076 8.844128 -0.263154 0.427773 3.588444 -0.000002 0.000019 11.682262 -4.794145 -3.247413 8.203506 -0.000032 -0.000012 11.746691 -1.272934 -4.246848 6.239712 -0.000015 -0.000094 17.658266 -0.042937 -4.163952 10.019312 -0.000018 0.000012 5.101527 2.328956 0.327540 -1.406102 -0.000071 -0.000063 5.101583 -1.079559 1.259690 -24.310831 -0.000034 -0.000060 11.655109 0.000000 -0.000000 -0.000000 -2.625408 -0.000018 11.175182 5.432532 -90.273914 0.311683 -0.000015 0.000020 10.434692 -15.943666 -30.694979 12.169923 0.000011 0.000015 29.628395 26.385311 -0.700896 37.879034 -0.000008 0.000076 22.857559 -11.091963 -15.074004 -10.320238 -2.867290 -2.944244 3.959511 31.570371 -17.795643 50.709011 0.000011 -0.000008 3.350464 -13.848224 8.875877 -24.834996 -0.000019 -0.000072 3.756554 -9.200075 6.815973 -16.986788 -0.000000 0.000014 3.147322 -0.000002 0.000005 0.000000 -0.086731 -2.345201 10.030922 -12.178561 -17.409372 4.982412 -0.000019 0.000015 4.061094 0.299576 -12.638161 1.805950 -0.000065 -0.000019 3.248898 -0.199985 -12.638143 1.805851 -0.000042 -0.000014 2.639713 0.000002 -0.000001 -0.000001 0.104115 -0.006771 9.502964 -6.707313 -16.730974 1.745485 -0.000005 0.000014 4.568731 0.433175 -11.933987 0.635000 -0.000023 -0.000013 3.654973 -0.067118 -11.934002 0.634811 -0.000009 0.000012 2.741241 -0.000002 -0.000000 -0.000000 0.086722 2.267535 8.921721 1.422562 -18.118332 -1.068735 0.000004 0.000017 4.061143 -0.908963 -12.879468 -0.802029 0.000001 -0.000002 3.654988 0.091266 -12.879537 -0.801495 -0.000003 -0.000001 2.741242 -0.000000 0.000000 -0.000000 -0.173523 4.467238 7.977005 10.273888 -17.842254 -5.275221 -0.000010 -0.000002 3.350401 -1.708610 -12.950425 -2.562037 -0.000047 0.000007 2.842749 0.292132 -12.950290 -2.562204 0.000009 -0.000006 2.639723 0.000001 -0.000000 0.000000 0.000003 -0.000047 0.000023 -0.000003 0.000002 0.000002 0.000001 -0.000021 -0.000017 0.000003 0.000002 0.000000 2.625397 -0.000022 11.175219 -6.396905 84.019673 -0.304109 0.000027 0.000000 10.813660 -30.493253 44.127813 -35.605991 0.000038 0.000015 28.724838 -27.510885 2.943619 77.554968 0.644318 0.328880 25.716202 23.649581 30.761939 -27.457419 2.867310 -2.944260 3.959541 -31.690742 16.746654 52.306828 -0.000031 0.000000 3.350430 11.527938 -7.943516 -20.956286 -0.000004 -0.000004 3.756504 7.690590 -5.973175 -14.361033 -0.000011 -0.000013 3.100014 0.000003 0.000002 0.000004 0.086769 -2.345276 10.030876 -6.707107 11.674975 9.701380 0.000007 0.000012 4.061108 0.437326 7.125306 -1.006653 -0.000018 0.000012 3.248897 -0.062675 7.125539 -1.006636 0.000003 0.000003 2.639724 0.000000 0.000001 0.000001 -0.104097 -0.006761 9.502934 -1.732258 10.497184 5.637219 -0.000041 -0.000019 4.568727 0.476176 7.194485 -0.379038 -0.000040 -0.000035 3.654983 -0.023827 7.194498 -0.379057 0.000002 0.000002 2.741264 0.000002 0.000001 -0.000003 -0.086758 2.267458 8.921674 6.860793 12.530140 0.836171 0.000031 0.000017 4.061080 -0.957192 8.910748 0.549436 -0.000006 0.000022 3.654972 0.042815 8.910596 0.549427 0.000004 0.000017 2.741234 -0.000002 -0.000002 0.000001 0.173500 4.467188 7.976990 15.931710 15.182395 -3.033430 -0.000042 0.000015 3.350409 -1.833580 9.842589 1.932606 0.000014 -0.000021 2.842766 0.166431 9.842599 1.932623 0.000008 -0.000010 2.639710 0.000002 -0.000004 0.000001 0.000003 -0.000058 -0.000017 0.000001 -0.000006 0.000003 0.000002 -0.000050 0.000002 -0.000002 0.000001 0.000001 -11.289887 0.000059 0.000003 -16.539296 -1.321950 16.491954 -0.000003 0.000000 -38.200329 -0.802848 0.252260 17.465373 0.000031 0.000003 -39.900856 -18.827920 1.054825 11.515912 -0.000013 -15.261654 0.000005 1.392984 0.947965 -14.872573 -0.000042 -7.370716 0.000002 -0.000002 -0.000001 -0.000001 -0.000006 -0.000011 0.000001 0.000002 -0.000002 -0.000001 0.000015 -0.000000 -0.000004 0.000000 0.000000 0.000000 11.315678 -0.000012 -0.000031 -14.471947 -19.737828 14.743385 -0.000002 0.000031 -38.200336 1.649684 -0.758626 24.671663 0.000004 -0.000007 -39.900856 0.284807 10.187832 8.121610 -0.000033 -15.261737 0.000034 -1.536349 -1.498281 -18.839603 -0.000032 -7.539978 -0.000001 -0.000000 0.000000 0.000000 0.000002 -0.000003 -0.000001 0.000000 -0.000000 0.000000 0.000001 0.000001 0.000002 -0.000000 -0.000000 0.000002 
